<?xml version="1.0" standalone="no"?><!DOCTYPE svg PUBLIC "-//W3C//DTD SVG 1.1//EN" "http://www.w3.org/Graphics/SVG/1.1/DTD/svg11.dtd"><svg class="icon" width="24px" height="24.00px" viewBox="0 0 1024 1024" version="1.1" xmlns="http://www.w3.org/2000/svg"><path fill="#fabfcc" d="M505.154694 0.046504a511.966082 511.966082 0 1 0 518.749633 505.011876A511.966082 511.966082 0 0 0 505.154694 0.046504z m56.742908 170.65536c52.007221 0 67.408867 30.184667 67.408867 64.678382 0 43.175806-34.579042 83.023833-93.476474 83.023833-49.298067 0-72.741848-24.809023-71.376604-65.744978C464.474723 218.144055 493.400806 170.701864 561.897602 170.701864z m-133.345833 661.289523c-35.581643 0-61.585253-21.609235-36.754898-116.557611l40.807963-168.287518c7.039534-26.984879 8.212789-37.77883 0-37.77883a271.811326 271.811326 0 0 0-84.261084 36.989549l-17.748158-29.096739c86.5436-72.229881 186.057007-114.659071 228.699515-114.65907 35.560311 0 41.447921 42.087878 23.699764 106.787592l-46.738237 177.054936c-8.234121 31.272595-4.693022 42.087878 3.56243 42.087879a183.987811 183.987811 0 0 0 80.016033-39.954687l20.094668 26.984879C555.839336 799.588201 464.048084 831.991387 428.551769 831.991387z"  /></svg>