<?xml version="1.0" standalone="no"?><!DOCTYPE svg PUBLIC "-//W3C//DTD SVG 1.1//EN" "http://www.w3.org/Graphics/SVG/1.1/DTD/svg11.dtd"><svg class="icon" width="24px" height="24.00px" viewBox="0 0 1024 1024" version="1.1" xmlns="http://www.w3.org/2000/svg"><path fill="#fabfcc" d="M663.3856 188.41984c-8.85504-7.18976-17.14944-11.06432-23.23968-11.06432-24.89984 0-50.9056 60.31488-66.95552 130.03008 54.22976-32.64512 101.26464-71.93088 104.02944-97.38496C677.21984 207.79008 677.77536 200.5952 663.3856 188.41984L663.3856 188.41984zM370.11456 120.3648c-9.95968 0-20.47488 7.74528-27.11424 13.8304-24.89984 22.68928-22.68544 37.62944-22.12992 43.16032 6.08512 40.94464 75.25504 91.84896 141.65504 127.81312C441.49504 213.8752 404.97536 120.3648 370.11456 120.3648L370.11456 120.3648zM648.44544 339.48032 386.16448 339.48032c-58.65472-37.6256-118.9696-90.1952-128.37504-151.06048-3.87456-27.1104 0-68.05504 44.26496-107.33952C324.18944 61.15968 346.87488 51.2 370.11456 51.2c78.57536 0 124.50048 117.85472 148.29568 209.70496 19.92064-71.9296 56.44032-152.71552 121.7344-152.71552 19.92064 0 40.94464 8.3008 61.41952 24.90112 36.51968 29.3248 41.50016 62.52416 39.2896 85.2096C735.32032 264.22528 693.26464 306.83008 648.44544 339.48032L648.44544 339.48032zM854.28992 426.35008c0-16.04992-12.7296-28.7744-28.22016-28.7744L598.09024 397.57568c-15.49056 0-28.22016 12.72448-28.22016 28.7744L569.87008 541.44c0 16.0448 12.7296 28.77056 28.22016 28.77056l227.97952 0c15.49056 0 28.22016-12.72448 28.22016-28.77056L854.28992 426.35008 854.28992 426.35008zM455.8848 656.52992c0-15.4944-12.7296-28.7744-28.7744-28.7744L256.13056 627.75552c-15.49568 0-28.22528 13.28-28.22528 28.7744l0 230.73536c0 16.0448 12.7296 28.77056 28.22528 28.77056L427.1104 916.03584c16.0448 0 28.7744-12.72448 28.7744-28.77056L455.8848 656.52992 455.8848 656.52992zM455.8848 426.35008c0-16.04992-12.7296-28.7744-28.7744-28.7744L199.13472 397.57568c-15.4944 0-28.22016 12.72448-28.22016 28.7744L170.91456 541.44c0 16.0448 12.72576 28.77056 28.22016 28.77056L427.1104 570.21056c16.0448 0 28.7744-12.72448 28.7744-28.77056L455.8848 426.35008 455.8848 426.35008zM569.87008 887.26528c0 16.0448 12.7296 28.77056 28.22016 28.77056L769.0752 916.03584c15.49056 0 28.22016-12.72448 28.22016-28.77056L797.29536 656.52992c0-15.4944-12.7296-28.7744-28.22016-28.7744L598.09024 627.75552c-15.49056 0-28.22016 13.28-28.22016 28.7744L569.87008 887.26528 569.87008 887.26528zM883.0656 656.52992l-28.7744 0 0 288.2752c0 16.04992-12.7296 28.7744-28.22016 28.7744L199.13472 973.57952c-15.4944 0-28.22016-12.72448-28.22016-28.7744L170.91456 656.52992l-28.7744 0c-15.49568 0-28.22016-12.72448-28.22016-28.7744L113.92 368.2496c0-15.48928 12.72448-28.76928 28.22016-28.76928l740.92544 0c15.49056 0 28.22016 13.28 28.22016 28.76928l0 259.50592C911.28448 643.80544 898.55488 656.52992 883.0656 656.52992L883.0656 656.52992zM883.0656 656.52992"  /></svg>