<?xml version="1.0" standalone="no"?><!DOCTYPE svg PUBLIC "-//W3C//DTD SVG 1.1//EN" "http://www.w3.org/Graphics/SVG/1.1/DTD/svg11.dtd"><svg class="icon" width="24px" height="24.00px" viewBox="0 0 1024 1024" version="1.1" xmlns="http://www.w3.org/2000/svg"><path fill="#fabfcc" d="M772.039111 0c103.879111 0 188.814222 71.054222 194.730667 160.654222L967.111111 170.666667v682.666666c0 90.908444-81.180444 165.205333-183.580444 170.382223L771.982222 1024H252.017778C148.081778 1024 63.146667 952.945778 57.230222 863.345778L56.888889 853.333333V170.666667C56.888889 79.758222 138.069333 5.461333 240.469333 0.284444L252.017778 0h520.078222zM625.777778 625.777778H398.222222c-62.862222 0-113.777778 25.486222-113.777778 56.888889s50.915556 56.888889 113.777778 56.888889h227.555556c62.862222 0 113.777778-25.486222 113.777778-56.888889s-50.915556-56.888889-113.777778-56.888889z m37.944889-341.333334H360.277333C318.407111 284.444444 284.444444 309.930667 284.444444 341.333333s33.962667 56.888889 75.832889 56.888889h303.445334C705.592889 398.222222 739.555556 372.736 739.555556 341.333333s-33.962667-56.888889-75.832889-56.888889z"  /></svg>