<?xml version="1.0" standalone="no"?><!DOCTYPE svg PUBLIC "-//W3C//DTD SVG 1.1//EN" "http://www.w3.org/Graphics/SVG/1.1/DTD/svg11.dtd"><svg class="icon" width="24px" height="24.00px" viewBox="0 0 1024 1024" version="1.1" xmlns="http://www.w3.org/2000/svg"><path d="M512 512m-512 0a512 512 0 1 0 1024 0 512 512 0 1 0-1024 0Z" fill="#936CF8" /><path d="M494.933333 256c66.56 0 119.466667 52.906667 119.466667 119.466667s-52.906667 119.466667-119.466667 119.466666-119.466667-52.906667-119.466666-119.466666 52.906667-119.466667 119.466666-119.466667zM583.68 512c13.653333 5.12 27.306667 11.946667 40.96 18.773333C597.333333 556.373333 580.266667 592.213333 580.266667 631.466667c0 32.426667 11.946667 61.44 30.72 85.333333H256c0-92.16 61.44-172.373333 150.186667-204.8 22.186667 23.893333 52.906667 39.253333 88.746666 39.253333 34.133333 0 64.853333-13.653333 88.746667-39.253333z" fill="#FFFFFF" /><path d="M716.8 529.066667c56.32 0 102.4 46.08 102.4 102.4s-46.08 102.4-102.4 102.4-102.4-46.08-102.4-102.4 46.08-102.4 102.4-102.4z m-8.533333 34.133333c-5.12 0-8.533333 3.413333-8.533334 8.533333v68.266667c0 5.12 3.413333 8.533333 8.533334 8.533333h51.2c5.12 0 8.533333-3.413333 8.533333-8.533333s-3.413333-8.533333-8.533333-8.533333H716.8v-59.733334c0-3.413333-3.413333-6.826667-8.533333-8.533333z" fill="#FFFFFF" /></svg>