<?xml version="1.0" standalone="no"?><!DOCTYPE svg PUBLIC "-//W3C//DTD SVG 1.1//EN" "http://www.w3.org/Graphics/SVG/1.1/DTD/svg11.dtd"><svg class="icon" width="24px" height="24.00px" viewBox="0 0 1024 1024" version="1.1" xmlns="http://www.w3.org/2000/svg"><path fill="#fabfcc" d="M508.897309 614.406359a238.958768 238.958768 0 1 1 0.063587-477.885743 238.958768 238.958768 0 0 1-0.063587 477.885743zM32.950961 1024A272.023845 272.023845 0 0 1 31.04336 989.885743c0-150.191754 94.330849-281.561848 234.952807-352.810731a407.813214 407.813214 0 0 0 242.901142 79.737705c87.431694 0.158967 172.574267-27.819175 242.901143-79.737705 140.621957 71.248882 234.9846 202.618977 234.9846 352.810731 0 12.462991-0.635867 23.908594-1.907601 34.114257H32.982754zM201.710027 477.853949c-56.528564 0-102.374565-61.106806-102.374566-136.520616 0-68.482861 37.834078-125.202186 87.050174-135.026329C232.83571 86.15996 359.691149 0 508.897309 0c149.237953 0 276.15698 86.223547 322.511674 206.338798 49.279682 9.79235 87.113761 66.511674 87.113761 134.994535 0 75.41381-45.909588 136.520616-102.374565 136.520616h-34.177844V307.187283c0-130.257327-120.751118-238.926975-273.073026-238.926975-152.290114 0-273.073025 108.669647-273.073025 238.926975v170.666666H201.710027z"  /></svg>