<?xml version="1.0" standalone="no"?><!DOCTYPE svg PUBLIC "-//W3C//DTD SVG 1.1//EN" "http://www.w3.org/Graphics/SVG/1.1/DTD/svg11.dtd"><svg t="1602605544653" class="icon" viewBox="0 0 1024 1024" version="1.1" xmlns="http://www.w3.org/2000/svg" p-id="18686" width="84" height="84" xmlns:xlink="http://www.w3.org/1999/xlink"><defs><style type="text/css"></style></defs><path d="M512 512m-491.52 0a491.52 491.52 0 1 0 983.04 0 491.52 491.52 0 1 0-983.04 0Z" fill="#c1a78e" p-id="18687" data-spm-anchor-id="a313x.7781069.0.i58" class="selected"></path><path d="M626.688 497.2544c44.60544-39.3216 76.47232-91.7504 76.47232-157.2864C703.16032 228.5568 620.29824 143.36 512 143.36 403.70176 143.36 320.83968 228.5568 320.83968 339.968c0 65.536 31.86688 117.9648 76.47232 157.2864C295.36256 543.1296 225.28 647.9872 225.28 765.952c0 19.6608 12.73856 32.768 31.86688 32.768 19.08736 0 31.86688-13.1072 31.86688-32.768 0-124.5184 101.90848-229.376 222.98624-229.376s222.98624 104.8576 222.98624 229.376c0 19.6608 12.77952 32.768 31.86688 32.768 19.12832 0 31.86688-13.1072 31.86688-32.768 0-117.9648-70.08256-222.8224-172.032-268.6976zM512 471.04c-70.08256 0-127.42656-58.9824-127.42656-131.072 0-72.0896 57.344-131.072 127.42656-131.072 70.08256 0 127.42656 58.9824 127.42656 131.072 0 72.0896-57.344 131.072-127.42656 131.072z" fill="#ffffff" p-id="18688" data-spm-anchor-id="a313x.7781069.0.i57" class=""></path></svg>