<?xml version="1.0" standalone="no"?><!DOCTYPE svg PUBLIC "-//W3C//DTD SVG 1.1//EN" "http://www.w3.org/Graphics/SVG/1.1/DTD/svg11.dtd"><svg t="1603012277480" class="icon" viewBox="0 0 1024 1024" version="1.1" xmlns="http://www.w3.org/2000/svg" p-id="5330" width="24" height="24" xmlns:xlink="http://www.w3.org/1999/xlink"><defs><style type="text/css"></style></defs><path d="M508.851645 512.059687m-508.831291 0a508.831292 508.831292 0 1 0 1017.662583 0 508.831292 508.831292 0 1 0-1017.662583 0Z" fill="#ffcccc" p-id="5331" data-spm-anchor-id="a313x.7781069.0.i26" class="selected"></path><path d="M418.511931 381.745387h180.689605v31.497287H418.511931z" fill="#FFB8B8" p-id="5332"></path><path d="M379.544851 295.985246c0-18.074049 6.045037-60.104354 61.72247-60.104354 21.981951 0 38.712659 9.963116 49.703635 29.573866a92.965336 92.965336 0 0 1 10.461781 31.344634 7.398555 7.398555 0 0 0 7.449439 6.564055 7.31714 7.31714 0 0 0 7.378201-6.564055c0-0.162829 1.689354-15.560372 10.248067-30.978268 11.001153-19.844817 27.813275-29.940232 49.937702-29.940232 55.677433 0 61.712293 42.030305 61.712293 60.104354 0 29.278738-27.050012 62.170251-34.875994 71.024092H414.420845c-7.815805-8.853842-34.875994-41.674116-34.875994-71.024092zM791.594495 774.825421c-8.406061 5.983976-18.878018 13.362177-24.404036 13.423238h-0.152653c-5.241067 0-8.416238-3.684012-13.860841-10.685671-7.011835-8.935256-16.598409-21.096567-36.88083-21.096567-19.305445 0-26.469933 11.133451-31.700823 19.315622-4.803463 7.5105-7.968457 12.466616-19.030671 12.466616-11.509994 0-15.478957-5.302128-20.954092-12.680329-6.177335-8.263585-13.789604-18.511653-32.51497-18.511653-18.959433 0-27.73186 10.543195-34.804756 19.030671-6.502994 7.815805-10.553372 12.161311-19.397037 12.161311-8.273762 0-11.133451-3.836665-16.303281-11.87636-5.526018-8.629951-13.056872-20.435073-32.820274-20.435073h-0.16283c-19.743049 0-27.263726 11.805122-32.799921 20.435073-5.149476 8.039695-7.958281 11.87636-16.293104 11.87636-8.853842 0-12.914396-4.426921-19.397036-12.161311-7.083073-8.487476-15.8555-19.030671-34.79458-19.030671-18.664305 0-26.337634 10.258244-32.525147 18.511653-5.526018 7.378201-9.515335 12.680329-20.943914 12.680329-11.062214 0-14.237384-4.945939-19.030671-12.466616-5.23089-8.192348-12.395378-19.315622-31.721178-19.315622-20.272244 0-29.858817 12.161311-36.870652 21.096567-5.454781 7.001659-8.629951 10.685671-13.860842 10.685671h-0.152652c-5.536195-0.071238-16.008153-7.520677-24.414214-13.423238-6.849006-4.874701-13.199348-9.362683-19.091732-12.090073l47.047482-75.583312c10.543195-1.333165 16.669647-9.138793 22.134604-16.07939 6.48264-8.334823 12.161311-15.489134 25.289421-15.489134 11.275927 0 14.451098 5.017177 19.315622 12.537853 5.23089 8.100756 12.313964 19.254561 31.48711 19.254562 18.878018 0 26.622586-10.329482 32.820275-18.664305 5.464957-7.296787 9.362683-12.598915 20.648787-12.598915 12.029012 0 17.117427 6.045037 23.447415 13.718366 6.492817 7.815805 14.60375 17.473616 30.754378 17.473616 16.730707 0 23.355823-10.329482 28.678305-18.664305 5.088415-7.876866 8.701189-13.636951 20.424897-13.636952h0.142475c11.723707 0 15.346659 5.678671 20.435074 13.636952 5.302128 8.334823 11.947598 18.664305 28.688482 18.664305 16.150628 0 24.261561-9.739226 30.754378-17.473616 6.401226-7.673329 11.418403-13.718366 23.437238-13.718366 11.286104 0 15.194006 5.302128 20.648787 12.598915 6.197689 8.334823 13.952433 18.664305 32.820275 18.664305 19.183323 0 26.25622-11.153805 31.507463-19.254562 4.874701-7.520677 8.029518-12.537854 19.315622-12.537853 13.12811 0 18.806781 7.154311 25.279245 15.489134 5.464957 6.940598 11.591409 14.746226 22.134603 16.07939l47.057659 75.583312c-6.187512 2.72739-12.446262 7.225549-19.38686 12.090073z" fill="#FFFFFF" p-id="5333"></path><path d="M739.244885 647.543816c-5.678671-3.907902-12.985634-6.777768-22.785921-6.777768-19.315622 0-26.48011 11.133451-31.721177 19.315622-4.772933 7.5105-7.948104 12.466616-19.020494 12.466616-11.499817 0-15.478957-5.302128-20.943915-12.680329-6.187512-8.273762-13.779427-18.511653-32.51497-18.511653-18.949256 0-27.742037 10.543195-34.814933 19.030671-6.502994 7.815805-10.543195 12.161311-19.397037 12.161311-8.253409 0-11.143628-3.836665-16.30328-11.87636-5.526018-8.629951-13.056872-20.424897-32.820275-20.424896h-0.142476c-19.763403 0-27.273903 11.794945-32.810098 20.424896-5.159652 8.039695-7.968457 11.87636-16.30328 11.87636-8.853842 0-12.914396-4.426921-19.397037-12.161311-7.083073-8.487476-15.865677-19.030671-34.814933-19.030671-18.654128 0-26.327458 10.248067-32.51497 18.511653-5.536195 7.378201-9.515335 12.680329-20.943915 12.680329-11.062214 0-14.237384-4.945939-19.030671-12.466616-5.241067-8.192348-12.385201-19.315622-31.711-19.315622-9.810464 0-17.117427 2.798628-22.785921 6.777768L415.275699 427.999077h187.233307L739.244885 647.543816z" fill="#FFFFFF" p-id="5334"></path></svg>