<?xml version="1.0" standalone="no"?><!DOCTYPE svg PUBLIC "-//W3C//DTD SVG 1.1//EN" "http://www.w3.org/Graphics/SVG/1.1/DTD/svg11.dtd"><svg t="1603012491577" class="icon" viewBox="0 0 1024 1024" version="1.1" xmlns="http://www.w3.org/2000/svg" p-id="8276" width="24" height="24" xmlns:xlink="http://www.w3.org/1999/xlink"><defs><style type="text/css"></style></defs><path d="M512 512m-512 0a512 512 0 1 0 1024 0 512 512 0 1 0-1024 0Z" fill="#707070" p-id="8277" data-spm-anchor-id="a313x.7781069.0.i44" class=""></path><path d="M407.317943 667.282286c10.664229-8.001829 26.667886-8.001829 34.669714 2.6624 37.332114 42.671543 109.319314 42.671543 157.330286 0 10.664229-8.001829 26.667886-8.001829 34.669714 2.6624 7.9872 10.678857 7.9872 26.667886-2.677028 34.669714-69.339429 61.3376-170.656914 61.3376-226.669715-2.6624-7.9872-10.678857-7.9872-29.344914 2.677029-37.332114zM516.651886 277.942857c91.370057 0 169.735314 67.218286 184.261485 154.7264l-2.925714-0.058514A77.385143 77.385143 0 0 1 775.314286 509.937371v77.341258a77.385143 77.385143 0 0 1-77.326629 77.326628 77.385143 77.385143 0 0 1-77.341257-77.326628v-77.341258c0-26.477714 13.370514-49.898057 33.718857-63.839085-7.928686-67.291429-65.930971-120.159086-137.713371-120.159086-70.685257 0-128 51.229257-137.333029 117.0432a77.341257 77.341257 0 0 1 38.663314 66.954971v77.341258a77.385143 77.385143 0 0 1-77.341257 77.326628A77.385143 77.385143 0 0 1 263.314286 587.278629v-77.341258a77.4144 77.4144 0 0 1 69.0176-76.887771C346.667886 345.380571 425.135543 277.942857 516.651886 277.942857zM340.640914 480.607086a29.5936 29.5936 0 0 0-29.330285 29.330285v77.341258c0 16.003657 13.341257 29.330286 29.330285 29.330285a29.5936 29.5936 0 0 0 29.344915-29.330285v-77.341258a29.5936 29.5936 0 0 0-29.344915-29.330285z m357.346743 0a29.5936 29.5936 0 0 0-29.344914 29.330285v77.341258c0 16.003657 13.341257 29.330286 29.344914 29.330285a29.5936 29.5936 0 0 0 29.330286-29.330285v-77.341258a29.5936 29.5936 0 0 0-29.330286-29.330285z" fill="#ffffff" p-id="8278" data-spm-anchor-id="a313x.7781069.0.i45" class="selected"></path></svg>