<?xml version="1.0" standalone="no"?><!DOCTYPE svg PUBLIC "-//W3C//DTD SVG 1.1//EN" "http://www.w3.org/Graphics/SVG/1.1/DTD/svg11.dtd"><svg t="1603023861140" class="icon" viewBox="0 0 1024 1024" version="1.1" xmlns="http://www.w3.org/2000/svg" p-id="15711" id="mx_n_1603023861142" width="84" height="84" xmlns:xlink="http://www.w3.org/1999/xlink"><defs><style type="text/css"></style></defs><path d="M511.1 921.9c226.6 0 409.6-183 409.6-409.6 0-226.6-183-409.6-409.6-409.6-226.6 0-409.6 183-409.6 409.6 0 226.6 183 409.6 409.6 409.6z m0 0" fill="#c4a68e" p-id="15712" data-spm-anchor-id="a313x.7781069.0.i37" class=""></path><path d="M724.1 749.9h-30c-8.2-95.6-84.7-169.3-180.2-169.3-95.6 0-172 73.7-180.2 169.3h-32.8c5.5-87.4 62.8-158.4 139.3-188.4C393.8 534.2 361 485 361 427.7c0-84.7 68.3-152.9 150.2-152.9 81.9 0 150.2 68.3 150.2 152.9 0 57.3-32.8 109.2-79.2 133.8 79.1 30 136.4 101 141.9 188.4z m-92.8-322.2c0-68.3-54.6-122.9-120.1-122.9S391 359.4 391 427.7c0 68.3 54.6 122.9 120.2 122.9 65.5-0.1 120.1-54.7 120.1-122.9z m0 0" fill="#ffffff" p-id="15713" data-spm-anchor-id="a313x.7781069.0.i40" class="selected"></path></svg>