<?xml version="1.0" standalone="no"?><!DOCTYPE svg PUBLIC "-//W3C//DTD SVG 1.1//EN" "http://www.w3.org/Graphics/SVG/1.1/DTD/svg11.dtd"><svg t="1603013889336" class="icon" viewBox="0 0 1024 1024" version="1.1" xmlns="http://www.w3.org/2000/svg" p-id="28066" width="24" height="24" xmlns:xlink="http://www.w3.org/1999/xlink"><defs><style type="text/css"></style></defs><path d="M528.3 200.8c-171.9 0-311.2 139.3-311.2 311.2 0 27.2 3.5 53.5 10.1 78.7l-41.7 116.8c-3.4 9.7 2.6 20.1 12.7 21.9l132.4 24.2c0.6 0.1 1.2 0 1.7 0.1 53.5 43.5 121.7 69.6 196 69.6 171.9 0 311.2-139.3 311.2-311.2 0-172-139.3-311.3-311.2-311.3z m173.3 233.5L599.8 577c-11.9 16.7-30.4 27.3-50.8 29.3l-174.8 16.6c-18 1.7-29.7-18.5-19.2-33.2L456.8 447c11.9-16.7 30.4-27.3 50.8-29.3l174.8-16.6c18-1.7 29.7 18.5 19.2 33.2z" p-id="28067" data-spm-anchor-id="a313x.7781069.0.i206" class="selected" fill="#ffcccc"></path></svg>