<?xml version="1.0" standalone="no"?><!DOCTYPE svg PUBLIC "-//W3C//DTD SVG 1.1//EN" "http://www.w3.org/Graphics/SVG/1.1/DTD/svg11.dtd"><svg t="1602642907393" class="icon" viewBox="0 0 1024 1024" version="1.1" xmlns="http://www.w3.org/2000/svg" p-id="5061" xmlns:xlink="http://www.w3.org/1999/xlink" width="36" height="36"><defs><style type="text/css"></style></defs><path d="M512 512m-512 0a512 512 0 1 0 1024 0 512 512 0 1 0-1024 0Z" fill="#4CAFE9" p-id="5062"></path><path d="M744.13037 601.135407c-10.752-64.677926-55.900919-107.055407-55.900918-107.055407 6.454993-58.721659-17.206044-69.141807-17.206045-69.141807C666.061748 243.26637 515.168711 246.452148 512 246.535585c-3.168711-0.082489-154.078815-3.268267-159.023407 178.420622 0 0-23.661037 10.420148-17.206993 69.141808 0 0-45.14797 42.377481-55.89997 107.055407 0 0-5.741037 109.278815 51.602963 13.389748 0 0 12.909037 36.421215 36.553007 69.141808 0 0-42.294044 14.866963-38.693926 53.527703 0 0-1.443081 43.107556 90.313956 40.154075 0 0 64.494933-5.193956 83.858963-33.450667h17.057185c19.346963 28.256711 83.858963 33.450667 83.858963 33.450667 91.723852 2.9696 90.296889-40.154074 90.296889-40.154075 3.567881-38.644622-38.693926-53.527704-38.693926-53.527703 23.644919-32.720593 36.553956-69.141807 36.553955-69.141808 57.27763 95.889067 51.552711-13.406815 51.552711-13.406814z" fill="#FFFFFF" p-id="5063"></path></svg>