<?xml version="1.0" standalone="no"?><!DOCTYPE svg PUBLIC "-//W3C//DTD SVG 1.1//EN" "http://www.w3.org/Graphics/SVG/1.1/DTD/svg11.dtd"><svg t="1602642933645" class="icon" viewBox="0 0 1024 1024" version="1.1" xmlns="http://www.w3.org/2000/svg" p-id="5841" xmlns:xlink="http://www.w3.org/1999/xlink" width="36" height="36"><defs><style type="text/css"></style></defs><path d="M512 23.87932707c-269.41973079 0-488.12067293 218.70094212-488.12067293 488.31134508C23.87932707 781.61040293 242.77094133 1000.12067293 512 1000.12067293c269.61040293 0 488.12067293-218.51026997 488.12067293-487.93000078C1000.12067293 242.58026921 781.61040293 23.87932707 512 23.87932707z" fill="#E95655" p-id="5842" data-spm-anchor-id="a313x.7781069.0.i26" class=""></path><path d="M736.99312267 648.71192286c-45.37996881 96.48010174-195.05759702 143.38544769-305.83810913 134.61452932-105.44169221-8.38957407-240.81891011-43.2825753-254.92864831-170.84223553 0 0-7.43621337-57.77365777 48.62139516-132.51713581 0 0 80.46364218-112.49656135 174.27433398-144.72015265 93.81069183-32.03291916 104.86967584 22.117968 104.86967582 54.15088716-4.95747556 27.07544359-14.30041034 43.09190316 20.97393519 32.03291917 0 0 92.28531473-42.90123101 130.22907014-4.76680345 30.6982142 30.6982142 5.14814772 72.83675665 5.14814773 72.83675664s-12.77503323 14.1097382 13.34704965 19.25788595c26.12208286 5.14814772 108.68311858 43.47324741 63.30314977 139.9533492z" fill="#FFFFFF" p-id="5843" data-spm-anchor-id="a313x.7781069.0.i23" class=""></path><path d="M439.35391547 486.2592614c-110.01782355 4.95747556-199.06171191 64.06583831-199.06171192 137.66528351 0 73.40877309 89.04388837 128.70369303 199.06171192 123.55554533 110.20849568-4.95747556 199.25238407-73.98078949 199.25238407-147.38956254s-89.23456052-118.78874187-199.25238407-113.8312663z" fill="#E95655" p-id="5844"></path><path d="M514.28806565 671.21123513c-33.74896841 43.47324741-100.48421665 64.82852689-165.12207137 29.7448535-30.88888633-16.77914814-29.74485349-49.57475585-29.74485351-49.57475586s-12.77503323-103.72564298 97.81480671-116.69134838c110.97118423-12.77503323 130.80108657 93.04800327 97.05211817 136.52125074z" fill="#FFFFFF" p-id="5845" data-spm-anchor-id="a313x.7781069.0.i25" class=""></path><path d="M387.68176611 616.10698729c-20.59259088 2.09739353-35.46501764 20.21124663-35.46501764 37.371739 0 17.35116455 16.58847601 29.17283709 37.37173904 26.88477146 20.59259088-2.28806565 37.37173903-18.30452524 37.37173901-35.46501765-0.19067215-17.35116455-15.63511532-31.07955847-39.27846041-28.79149281zM440.11660404 601.80657693c-7.0548691 5.14814772-8.5802462 15.0630989-4.76680346 21.1646073 3.62277062 6.29218054 12.39368895 7.0548691 19.25788593 1.71604924 6.86419697-5.33881986 9.5336069-14.87242676 5.72016412-21.1646073-3.62277062-6.10150842-12.01234468-7.81755764-20.21124659-1.71604924z" fill="#E95655" p-id="5846" data-spm-anchor-id="a313x.7781069.0.i24" class="selected"></path><path d="M642.80108657 354.50481412s-4.19478701 24.21536151 15.25377103 25.35939436c19.44855806 1.14403283 54.72290355-1.14403283 57.58298563 41.75719818 1.33470498 25.16872219-2.66940994 34.70232908 15.63511533 37.37173901 13.34704964 1.90672135 24.40603363-12.5843611 26.50342713-27.45678785 1.14403283-12.39368895 8.96159047-50.14677223-38.89711612-83.32372423-20.02057447-13.5377218-71.88339596-13.72839391-76.078183 6.29218053z" fill="#FFFFFF" p-id="5847"></path><path d="M644.70780794 239.529515s-48.62139514 1.71604925-44.23593595 40.99450965c1.90672135 16.96982027 29.74485349 19.2578859 62.73113333 15.6351153 25.93141076-2.86008207 112.49656135 7.43621337 130.03839803 112.68723347 2.09739353 16.39780386 1.33470498 38.32509969-1.5253771 49.00273943 0.19067215 8.00822981-1.71604925 40.04114894 31.65157487 35.65568977 12.77503323-1.52537709 27.26611571-12.20301682 24.40603365-78.5569208-0.57201643-30.88888633-3.62277062-83.51439637-70.16734673-135.37721787-32.7956077-24.40603363-74.36213377-38.89711613-132.8984801-40.04114895z" fill="#FFFFFF" p-id="5848"></path></svg>