<?xml version="1.0" standalone="no"?><!DOCTYPE svg PUBLIC "-//W3C//DTD SVG 1.1//EN" "http://www.w3.org/Graphics/SVG/1.1/DTD/svg11.dtd"><svg t="1602642784043" class="icon" viewBox="0 0 1024 1024" version="1.1" xmlns="http://www.w3.org/2000/svg" p-id="3661" width="36" height="36" xmlns:xlink="http://www.w3.org/1999/xlink"><defs><style type="text/css"></style></defs><path d="M516.654545 32.581818c267.170909 0 484.072727 216.901818 484.072728 484.072727s-216.901818 484.072727-484.072728 484.072728-484.072727-216.901818-484.072727-484.072728 216.901818-484.072727 484.072727-484.072727z" fill="#5AAE3A" p-id="3662" data-spm-anchor-id="a313x.7781069.0.i11" class=""></path><path d="M362.123636 232.727273c-202.938182 37.236364-270.894545 269.963636-108.916363 376.087272 9.309091 5.585455 9.309091 5.585455-4.654546 45.614546l-11.170909 34.443636 40.96-22.341818 40.96-22.341818 21.410909 5.585454c22.341818 5.585455 52.130909 10.24 71.68 10.24h11.170909l-3.723636-15.825454c-31.650909-119.156364 78.196364-237.381818 221.556364-237.381818h19.549091l-3.723637-13.963637c-31.650909-111.709091-164.770909-184.32-295.098182-160.116363z m-17.687272 104.261818c21.410909 14.894545 22.341818 46.545455 1.861818 60.509091-33.512727 22.341818-72.610909-16.756364-50.269091-50.269091 10.24-14.894545 34.443636-20.48 48.407273-10.24z m173.149091 0c35.374545 24.203636 9.309091 80.058182-30.72 64.232727-28.858182-11.170909-31.650909-51.2-5.585455-65.163636 11.170909-5.585455 26.996364-5.585455 36.305455 0.930909z m78.196363 88.436364c-100.538182 18.618182-170.356364 95.883636-166.632727 185.250909 5.585455 119.156364 143.36 201.076364 275.549091 164.770909l15.825454-4.654546 32.581819 17.687273c18.618182 10.24 33.512727 17.687273 33.512727 16.756364s-2.792727-13.963636-7.447273-28.858182c-10.24-32.581818-11.170909-30.72 3.723636-40.96 159.185455-115.432727 19.549091-348.16-187.112727-309.992727z m-3.723636 95.883636c9.309091 5.585455 13.963636 21.410909 9.309091 31.650909-8.378182 23.272727-42.821818 25.134545-52.130909 2.792727-9.309091-26.065455 19.549091-50.269091 42.821818-34.443636z m140.567273 2.792727c13.963636 13.032727 11.170909 36.305455-4.654546 44.683637-25.134545 13.032727-51.2-13.032727-38.167273-37.236364 8.378182-15.825455 30.72-19.549091 42.821819-7.447273z" fill="#FFFFFF" p-id="3663"></path></svg>